<?xml version="1.0" encoding="UTF-8" standalone="no"?>
<!-- Created with Inkscape and love by Fania -->

<svg 
  xmlns:svg="http://www.w3.org/2000/svg"
  xmlns="http://www.w3.org/2000/svg"
  xmlns:xlink="http://www.w3.org/1999/xlink"
  version="1.0"
  viewBox="0 0 400 400" preserveAspectRatio="xMidYMid meet">
  <animateTransform xlink:href="#spiral"
    attributeName="transform" attributeType="XML"
    type="rotate"
    from="360 198 55" to="0 198 55" 
    begin="0s" dur="6s"
    repeatCount="indefinite"
    fill="freeze"
  />
  <g transform="translate(-160 -77)">
    <path id="spiral" fill="#54668c" transform-origin="45% 55%"
      d="M 327.53953,434.64269 C 290.56263,425.65464 273.0524,416.80954 249.79332,395.37008 228.4,375.65041 219.2292,359.07586 211.94168,341.50321 c -6.7922,-16.37824 -12.41271,-33.29189 -12.43652,-63.23548 -0.0153,-19.21538 1.76973,-29.52183 3.72003,-39.83505 2.86246,-15.13682 7.24689,-27.37349 16.39181,-43.87909 40.08896,-72.35626 137.76748,-109.6973 219.43241,-73.57302 45.00866,19.90947 71.20278,44.72932 92.18345,87.34715 11.96854,24.31157 18.46373,41.24269 20.56016,60.68871 0.82603,7.66206 2.13613,14.32156 2.09932,25.11874 -0.0378,11.09249 -1.797,20.06769 -3.14247,27.83681 -2.74116,15.82831 -6.94785,26.65046 -13.66989,40.17205 -7.21949,14.52224 -11.58491,21.12326 -9.70091,14.66893 14.47653,-49.59477 12.91166,-107.27901 -3.77306,-139.08319 -24.25491,-46.23436 -72.94701,-82.47339 -121.17674,-90.18564 -63.66761,-10.18086 -133.87078,33.94532 -151.72679,95.36782 -7.73788,26.61738 -8.1747,37.03018 -2.50047,59.60598 18.25712,72.63877 92.95774,110.0908 152.65846,76.53711 31.34851,-17.61884 49.20886,-51.61054 45.30697,-86.22796 -2.42473,-21.5121 -7.38683,-31.06564 -24.08246,-46.36606 -16.60455,-15.21693 -26.07918,-19.27115 -45.03628,-19.27115 -18.82397,0 -27.78883,3.78103 -41.51883,17.51103 -14.17871,14.1787 -17.16343,21.60477 -15.68448,39.02322 3.34437,39.38817 47.09163,56.15162 64.01509,24.52985 5.01947,-9.37896 4.42045,-14.03602 -2.72441,-21.18087 -8.2997,-8.29969 -9.51276,-8.2355 -12.93571,0.68454 -5.82261,15.17348 -20.12433,11.89062 -20.12433,-4.61939 0,-14.21013 14.34312,-26.61052 30.7795,-26.61052 15.85881,0 33.76379,23.28457 33.76379,43.90817 0,45.9575 -53.3046,70.45527 -93.67279,43.0502 -38.69948,-26.27222 -45.06227,-79.35335 -13.94489,-116.33425 20.1479,-23.94443 43.22399,-35.16741 72.30932,-35.16741 32.71442,0 58.36155,11.82943 80.62681,37.18817 65.30475,74.37799 11.79089,193.27886 -92.39674,205.29358 -14.4465,1.66594 -31.54718,1.74536 -38.0015,0.1765 z"
    />
  </g>
</svg>