<?xml version="1.0" standalone="no"?>
<!DOCTYPE svg PUBLIC "-//W3C//DTD SVG 20010904//EN"
 "http://www.w3.org/TR/2001/REC-SVG-20010904/DTD/svg10.dtd">
<svg version="1.0" xmlns="http://www.w3.org/2000/svg"
 width="204.000000pt" height="204.000000pt" viewBox="0 0 204.000000 204.000000"
 preserveAspectRatio="xMidYMid meet">
<metadata>
Created by potrace 1.11, written by Peter Selinger 2001-2013
</metadata>
<g transform="translate(0.000000,204.000000) scale(0.100000,-0.100000)"
fill="#000000" stroke="none">
<path d="M1091 1813 c-60 -21 -200 -157 -252 -242 -21 -37 -39 -62 -39 -58 0
18 56 105 102 160 27 31 43 57 36 57 -7 0 -56 16 -108 36 -83 32 -103 35 -160
31 -83 -6 -344 -93 -515 -172 -27 -12 -61 -26 -73 -30 -19 -5 -22 -12 -17 -28
6 -20 15 -99 33 -301 7 -83 21 -104 40 -62 9 21 8 27 -6 35 -14 9 -14 11 -2
12 8 1 21 1 28 0 6 -1 12 1 12 4 0 11 -28 35 -41 35 -25 0 6 17 51 28 66 17
201 35 208 28 3 -3 -4 -6 -15 -6 -11 0 -26 -7 -34 -16 -7 -8 -21 -13 -31 -11
-10 3 -18 1 -18 -5 0 -5 -5 -6 -10 -3 -6 4 -33 1 -59 -6 -51 -13 -57 -29 -23
-56 12 -10 13 -15 2 -28 -7 -8 -21 -15 -31 -15 -10 0 -21 -5 -25 -11 -4 -7 0
-9 12 -6 76 23 201 51 264 59 81 10 286 3 339 -12 l33 -9 -6 127 c-3 70 -2
132 2 138 4 7 8 -47 10 -120 2 -115 8 -174 28 -264 3 -15 1 -21 -6 -17 -14 9
-13 -41 2 -68 7 -12 15 -58 18 -102 5 -74 7 -80 28 -83 27 -4 33 -18 85 -168
75 -216 146 -328 255 -401 l53 -36 89 6 c76 5 97 10 157 42 80 43 120 80 171
155 20 30 53 75 73 100 57 72 102 159 96 189 -16 88 -33 131 -50 131 -14 0
-17 7 -14 36 2 20 8 39 14 42 6 4 18 22 27 39 14 27 14 36 4 53 -11 17 -10 22
2 30 20 13 26 12 44 -5 8 -8 19 -15 25 -15 16 0 13 -46 -4 -60 -8 -7 -15 -17
-15 -22 0 -23 31 17 39 51 9 34 15 117 12 168 -1 29 -40 54 -69 46 -19 -5 -20
-7 -7 -17 11 -8 12 -15 4 -26 -9 -13 -10 -12 -5 3 3 11 2 16 -4 12 -6 -3 -10
-12 -10 -20 0 -7 -7 -15 -15 -19 -18 -6 -20 15 -4 31 7 7 8 17 3 25 -5 7 -14
79 -20 160 -10 119 -16 157 -37 202 -28 61 -103 140 -157 165 -19 9 -56 29
-81 44 -76 45 -132 57 -269 56 -86 0 -139 -5 -169 -16z m-331 -53 c0 -5 -4
-10 -9 -10 -6 0 -13 5 -16 10 -3 6 1 10 9 10 9 0 16 -4 16 -10z m90 -24 c0 -2
-9 -6 -20 -9 -11 -3 -18 -1 -14 4 5 9 34 13 34 5z m-236 -110 c-3 -14 -10 -26
-15 -26 -12 0 -11 4 3 35 14 31 21 26 12 -9z m110 -12 c3 -8 2 -12 -4 -9 -6 3
-10 10 -10 16 0 14 7 11 14 -7z m-588 -43 c8 6 18 9 21 5 4 -4 1 -11 -7 -16
-23 -15 -57 -12 -64 5 -3 9 0 15 9 15 8 0 16 6 16 13 1 6 4 2 6 -11 4 -19 7
-21 19 -11z m516 17 c7 -18 -2 -39 -13 -32 -12 7 -12 44 0 44 5 0 11 -6 13
-12z m-295 -32 c4 -3 -1 -6 -10 -6 -9 0 -17 -4 -17 -10 0 -5 6 -10 14 -10 8 0
17 -7 20 -16 10 -25 7 -92 -4 -99 -5 -3 -10 -1 -10 5 0 6 -5 8 -10 5 -6 -4 -8
-11 -4 -17 4 -6 -3 -8 -17 -6 -33 4 -69 62 -69 109 0 22 -4 39 -10 39 -5 0
-10 4 -10 9 0 10 117 7 127 -3z m-167 0 c0 -3 -4 -8 -10 -11 -5 -3 -10 -1 -10
4 0 6 5 11 10 11 6 0 10 -2 10 -4z m19 -42 c12 -13 32 -76 26 -82 -2 -3 -11 0
-18 6 -8 7 -17 9 -20 5 -4 -3 -7 3 -7 15 0 24 -19 29 -38 10 -9 -9 -12 -9 -12
1 0 7 -6 11 -14 8 -18 -7 -43 20 -30 32 20 19 97 22 113 5z m361 1 c0 -8 -4
-15 -10 -15 -5 0 -7 7 -4 15 4 8 8 15 10 15 2 0 4 -7 4 -15z m-170 -66 c0 -11
-4 -17 -10 -14 -5 3 -10 13 -10 21 0 8 5 14 10 14 6 0 10 -9 10 -21z m1068 -4
c6 -14 16 -25 21 -25 5 0 11 -9 14 -21 3 -11 15 -23 26 -26 11 -3 17 -11 15
-18 -3 -7 0 -16 6 -20 9 -6 9 -10 -1 -16 -12 -7 -12 -12 -1 -29 7 -12 10 -30
7 -40 -3 -10 -1 -21 4 -25 7 -4 7 -14 0 -32 -8 -21 -6 -29 11 -45 27 -25 25
-32 -5 -24 -20 5 -23 3 -18 -10 6 -15 -1 -17 -65 -11 -48 5 -72 4 -72 -3 0 -6
-6 -10 -12 -8 -7 1 -32 -8 -56 -19 -24 -12 -57 -25 -75 -29 -18 -3 -45 -15
-60 -26 -27 -20 -30 -20 -103 -2 -41 9 -85 26 -97 36 -17 16 -23 17 -25 6 -3
-18 -56 -12 -72 7 -9 10 -6 16 9 25 18 9 19 14 10 31 -8 15 -7 28 1 50 8 17
10 55 8 93 -6 78 -8 77 121 82 60 1 97 7 101 15 5 8 21 10 45 6 27 -4 51 0 80
13 24 11 57 21 75 22 19 1 36 10 42 21 7 13 17 18 34 14 13 -2 24 0 24 4 0 5
-4 9 -10 9 -5 0 -10 5 -10 10 0 19 17 10 28 -15z m82 -29 c0 -11 -19 -15 -25
-6 -3 5 1 10 9 10 9 0 16 -2 16 -4z m-1082 -74 c6 -18 -15 -14 -22 4 -4 10 -1
14 6 12 6 -2 14 -10 16 -16z m432 4 c0 -3 -4 -8 -10 -11 -5 -3 -10 -1 -10 4 0
6 5 11 10 11 6 0 10 -2 10 -4z m995 -154 c-3 -3 -11 0 -18 7 -9 10 -8 11 6 5
10 -3 15 -9 12 -12z m-2 -74 c17 -36 15 -47 -6 -30 -7 6 -22 9 -34 6 -11 -3
-24 -1 -27 5 -4 6 0 11 8 11 8 0 18 9 21 20 9 28 20 25 38 -12z m-93 -116 c0
-37 -15 -60 -24 -37 -8 21 -8 60 0 68 12 12 24 -4 24 -31z m-594 -51 c-4 -6
-12 -11 -18 -11 -7 0 -7 4 1 13 6 8 9 16 7 19 -1 3 1 2 7 -2 5 -5 6 -13 3 -19z
m364 5 c0 -2 -7 -7 -16 -10 -8 -3 -12 -2 -9 4 6 10 25 14 25 6z m-324 -89 c4
-4 2 -7 -5 -7 -7 0 -9 -5 -6 -10 4 -6 12 -7 18 -3 7 4 6 -1 -2 -11 -12 -14
-12 -19 -2 -26 9 -5 10 -10 2 -14 -6 -4 -11 -18 -11 -32 0 -13 -4 -24 -9 -24
-6 0 -3 -12 5 -27 18 -36 18 -67 -1 -83 -22 -18 -46 15 -37 50 11 39 6 108 -9
127 -10 11 -10 14 -1 9 6 -4 12 -3 12 3 0 5 -5 11 -11 13 -9 3 -9 10 0 26 11
21 41 25 57 9z m378 -42 c11 -9 14 -15 7 -15 -9 0 -12 -14 -10 -43 3 -52 -5
-67 -37 -67 -19 0 -24 -5 -24 -25 0 -14 4 -25 9 -25 13 0 23 -32 13 -39 -5 -3
-11 -14 -15 -23 -3 -10 -16 -18 -27 -18 -17 0 -19 4 -14 27 7 25 6 26 -29 20
-23 -3 -38 -1 -42 6 -3 7 -3 2 -1 -10 3 -19 0 -23 -21 -23 -34 0 -63 18 -62
38 0 10 3 12 6 4 2 -6 9 -10 14 -6 12 7 12 64 -1 64 -5 0 -10 7 -10 15 0 8 -6
15 -12 16 -9 0 -9 2 1 6 11 5 11 7 0 14 -11 7 -10 9 4 9 9 0 17 5 17 11 0 7
12 9 35 5 20 -4 35 -3 35 2 0 6 10 12 23 16 13 3 36 17 51 31 30 28 62 32 90
10z m-214 -4 c0 -6 -9 -9 -19 -8 -11 0 -17 5 -15 9 7 11 34 10 34 -1z m-445
-71 c3 -5 1 -10 -4 -10 -6 0 -11 5 -11 10 0 6 2 10 4 10 3 0 8 -4 11 -10z m95
-42 c0 -12 -82 -6 -87 7 -2 6 15 9 42 7 25 -2 45 -8 45 -14z m-20 -41 c-1 -14
25 -35 37 -30 7 3 13 -2 13 -11 0 -19 -4 -20 -32 -3 -37 21 -57 40 -52 49 7
11 35 6 34 -5z m76 -45 c-11 -10 -15 4 -8 28 l7 25 3 -23 c2 -13 1 -26 -2 -30z
m269 -92 c3 -6 -1 -7 -9 -4 -18 7 -21 14 -7 14 6 0 13 -4 16 -10z m3 -164
c-13 -14 -28 -12 -28 5 0 5 9 9 20 9 17 0 19 -2 8 -14z m-55 -16 c-3 -11 -7
-20 -9 -20 -2 0 -4 9 -4 20 0 11 4 20 9 20 5 0 7 -9 4 -20z"/>
<path d="M585 1123 c-94 -8 -127 -15 -117 -25 7 -7 25 -7 54 -1 43 10 117 -5
156 -31 18 -11 25 -2 18 22 -5 16 -64 50 -70 40 -1 -1 -19 -3 -41 -5z"/>
<path d="M126 1095 c-10 -7 -15 -19 -11 -25 4 -7 11 -8 18 -2 15 12 74 25 110
24 15 0 27 4 27 9 0 15 -123 10 -144 -6z"/>
<path d="M710 1042 c0 -31 -62 -54 -113 -42 -55 13 -99 12 -133 0 -21 -8 -25
-13 -15 -23 9 -9 14 -9 21 2 7 12 11 12 25 -2 23 -23 52 -21 58 4 l5 20 41
-20 c24 -13 42 -17 46 -11 9 14 21 12 38 -4 13 -13 18 -11 43 16 26 28 27 30
4 15 -13 -10 -34 -17 -45 -16 -19 0 -19 1 1 11 12 5 27 21 33 34 14 30 14 34
1 34 -5 0 -10 -8 -10 -18z"/>
<path d="M148 1013 c-38 -6 -35 -28 3 -42 44 -15 49 -14 50 12 1 16 2 18 6 5
5 -19 38 -25 48 -9 11 19 -58 41 -107 34z"/>
<path d="M297 1013 c-4 -3 -7 -23 -7 -44 0 -21 -9 -53 -19 -71 -11 -18 -23
-55 -27 -83 -4 -27 -10 -59 -14 -71 -5 -11 -4 -27 0 -35 6 -8 5 -16 -2 -20 -7
-5 2 -15 23 -28 36 -22 103 -28 114 -10 4 5 17 9 28 8 54 -4 67 1 67 24 -1 25
-26 59 -58 76 -34 18 -26 -2 8 -21 32 -18 38 -39 16 -57 -11 -9 -15 -9 -18 1
-4 10 -13 9 -42 -4 -49 -24 -72 -23 -101 6 -20 20 -23 31 -19 71 3 25 17 77
31 113 14 37 26 86 27 110 0 23 1 42 0 42 0 0 -4 -3 -7 -7z"/>
<path d="M130 942 c0 -15 18 -34 29 -31 7 3 3 11 -9 21 -11 10 -20 14 -20 10z"/>
<path d="M655 940 c3 -5 11 -10 16 -10 6 0 7 5 4 10 -3 6 -11 10 -16 10 -6 0
-7 -4 -4 -10z"/>
<path d="M1850 935 c0 -8 2 -15 4 -15 2 0 6 7 10 15 3 8 1 15 -4 15 -6 0 -10
-7 -10 -15z"/>
<path d="M485 920 c3 -5 11 -10 16 -10 6 0 7 5 4 10 -3 6 -11 10 -16 10 -6 0
-7 -4 -4 -10z"/>
<path d="M930 650 c0 -5 5 -10 11 -10 5 0 7 5 4 10 -3 6 -8 10 -11 10 -2 0 -4
-4 -4 -10z"/>
<path d="M422 632 c-18 -6 -15 -18 13 -48 17 -19 25 -22 25 -12 0 26 -24 65
-38 60z"/>
<path d="M450 630 c0 -5 7 -15 16 -22 41 -34 54 -49 54 -64 0 -8 -4 -12 -10
-9 -5 3 -10 13 -10 20 0 9 -6 12 -16 8 -10 -4 -12 -8 -5 -13 8 -4 7 -20 -3
-53 -12 -41 -12 -47 1 -47 8 0 12 4 8 9 -3 5 1 15 8 23 8 7 12 18 10 24 -7 22
33 21 67 -2 37 -26 66 -32 53 -11 -4 6 -8 17 -8 22 0 6 -4 10 -10 10 -5 0 -9
-3 -7 -7 4 -13 -8 -9 -24 6 -8 8 -14 22 -14 30 0 10 -6 13 -15 10 -9 -4 -15 0
-15 8 0 7 -10 20 -21 28 -12 8 -27 21 -35 28 -15 14 -24 15 -24 2z"/>
<path d="M311 604 c0 -11 3 -14 6 -6 3 7 2 16 -1 19 -3 4 -6 -2 -5 -13z"/>
<path d="M341 604 c0 -11 3 -14 6 -6 3 7 2 16 -1 19 -3 4 -6 -2 -5 -13z"/>
<path d="M890 601 c0 -18 -27 -90 -47 -123 -2 -4 3 -5 11 -2 9 3 16 11 16 16
0 5 12 7 29 3 25 -5 29 -3 33 19 6 30 -6 34 -21 9 -16 -29 -20 -11 -8 35 8 32
8 45 -1 54 -9 9 -12 7 -12 -11z"/>
<path d="M216 585 c-22 -33 -21 -66 1 -58 11 4 12 8 5 11 -7 2 -12 8 -12 14 0
5 10 6 22 2 20 -6 21 -5 9 10 -11 13 -11 19 -1 31 7 9 8 15 2 15 -5 0 -17 -11
-26 -25z"/>
<path d="M250 580 c0 -5 5 -10 10 -10 6 0 10 5 10 10 0 6 -4 10 -10 10 -5 0
-10 -4 -10 -10z"/>
<path d="M929 563 c-13 -15 -12 -15 9 -4 23 12 28 21 13 21 -5 0 -15 -7 -22
-17z"/>
<path d="M325 560 c-22 -3 -48 -10 -58 -16 -16 -9 -15 -12 11 -31 34 -25 109
-28 135 -5 15 13 20 14 26 3 6 -10 10 -9 15 4 9 24 8 25 -22 25 -15 0 -36 6
-47 13 -13 8 -35 11 -60 7z"/>
<path d="M585 560 c-3 -5 1 -10 9 -10 8 0 18 5 21 10 3 6 -1 10 -9 10 -8 0
-18 -4 -21 -10z"/>
<path d="M635 530 c3 -5 8 -10 11 -10 2 0 4 5 4 10 0 6 -5 10 -11 10 -5 0 -7
-4 -4 -10z"/>
<path d="M720 520 c0 -5 5 -10 11 -10 5 0 7 5 4 10 -3 6 -8 10 -11 10 -2 0 -4
-4 -4 -10z"/>
<path d="M643 463 c-7 -3 -13 -12 -13 -21 0 -12 -3 -13 -12 -4 -16 16 -28 15
-28 -3 0 -10 10 -15 30 -15 19 0 30 5 30 14 0 8 5 16 12 18 7 3 8 7 3 10 -6 3
-16 3 -22 1z"/>
<path d="M181 450 c0 -23 21 -54 59 -87 59 -50 83 -63 115 -62 l30 1 -27 10
c-16 5 -28 15 -28 22 0 8 -9 12 -22 9 -29 -5 -95 48 -114 91 -7 17 -13 24 -13
16z"/>
<path d="M326 428 c9 -30 6 -30 43 -17 25 9 29 14 20 25 -6 8 -25 14 -41 14
-26 0 -29 -3 -22 -22z m44 2 c0 -5 -7 -10 -15 -10 -8 0 -15 5 -15 10 0 6 7 10
15 10 8 0 15 -4 15 -10z"/>
<path d="M606 385 c-3 -8 -9 -15 -13 -14 -21 4 -31 -3 -36 -23 -6 -21 -7 -21
-27 -3 -11 10 -20 14 -20 8 0 -39 80 -55 141 -28 l34 15 -55 -7 c-53 -6 -54
-6 -40 13 8 10 21 23 28 27 6 4 12 12 12 17 0 16 -17 12 -24 -5z"/>
<path d="M400 345 c0 -8 5 -15 10 -15 6 0 10 7 10 15 0 8 -4 15 -10 15 -5 0
-10 -7 -10 -15z"/>
<path d="M360 330 c0 -5 5 -10 10 -10 6 0 10 5 10 10 0 6 -4 10 -10 10 -5 0
-10 -4 -10 -10z"/>
<path d="M480 330 c0 -5 5 -10 10 -10 6 0 10 5 10 10 0 6 -4 10 -10 10 -5 0
-10 -4 -10 -10z"/>
</g>
</svg>
